<svg
   xmlns:dc="http://purl.org/dc/elements/1.1/"
   xmlns:cc="http://creativecommons.org/ns#"
   xmlns:rdf="http://www.w3.org/1999/02/22-rdf-syntax-ns#"
   xmlns:svg="http://www.w3.org/2000/svg"
   xmlns="http://www.w3.org/2000/svg"
   xmlns:xlink="http://www.w3.org/1999/xlink"
   xmlns:sodipodi="http://sodipodi.sourceforge.net/DTD/sodipodi-0.dtd"
   xmlns:inkscape="http://www.inkscape.org/namespaces/inkscape"
   width="177.34335"
   height="151.12807"
   id="svg2"
   sodipodi:version="0.32"
   inkscape:version="0.46"
   sodipodi:docname="sivvus_weather_symbols_04_rainy.svg"
   inkscape:output_extension="org.inkscape.output.svg.inkscape"
   version="1.0">
  <defs
     id="defs4">
    <linearGradient
       id="linearGradient4047">
      <stop
         id="stop4049"
         offset="0"
         style="stop-color: rgb(179, 197, 227); stop-opacity: 1;" />
      <stop
         id="stop4051"
         offset="1"
         style="stop-color: rgb(55, 95, 113); stop-opacity: 1;" />
    </linearGradient>
    <linearGradient
       id="linearGradient3751">
      <stop
         style="stop-color: rgb(255, 255, 255); stop-opacity: 1;"
         offset="0"
         id="stop3753" />
      <stop
         style="stop-color: rgb(255, 255, 255); stop-opacity: 0;"
         offset="1"
         id="stop3755" />
    </linearGradient>
    <linearGradient
       id="linearGradient2624">
      <stop
         style="stop-color: rgb(0, 128, 128); stop-opacity: 0.654412;"
         offset="0"
         id="stop2626" />
      <stop
         style="stop-color: rgb(0, 52, 52); stop-opacity: 0.713235;"
         offset="1"
         id="stop2628" />
    </linearGradient>
    <linearGradient
       id="linearGradient2612">
      <stop
         style="stop-color: rgb(0, 0, 128); stop-opacity: 1;"
         offset="0"
         id="stop2614" />
      <stop
         style="stop-color: rgb(0, 0, 128); stop-opacity: 0;"
         offset="1"
         id="stop2616" />
    </linearGradient>
    <linearGradient
       inkscape:collect="always"
       id="linearGradient2593">
      <stop
         style="stop-color: rgb(255, 255, 255); stop-opacity: 1;"
         offset="0"
         id="stop2595" />
      <stop
         style="stop-color: rgb(255, 255, 255); stop-opacity: 0;"
         offset="1"
         id="stop2597" />
    </linearGradient>
    <linearGradient
       inkscape:collect="always"
       id="linearGradient3359">
      <stop
         style="stop-color: rgb(255, 255, 255); stop-opacity: 1;"
         offset="0"
         id="stop3361" />
      <stop
         style="stop-color: rgb(255, 255, 255); stop-opacity: 0;"
         offset="1"
         id="stop3363" />
    </linearGradient>
    <linearGradient
       id="linearGradient3341">
      <stop
         style="stop-color: rgb(150, 190, 255); stop-opacity: 1;"
         offset="0"
         id="stop3343" />
      <stop
         style="stop-color: rgb(9, 113, 159); stop-opacity: 1;"
         offset="1"
         id="stop3345" />
    </linearGradient>
    <linearGradient
       id="linearGradient3272">
      <stop
         style="stop-color: rgb(255, 255, 255); stop-opacity: 0.375;"
         offset="0"
         id="stop3274" />
      <stop
         style="stop-color: rgb(255, 255, 255); stop-opacity: 0;"
         offset="1"
         id="stop3276" />
    </linearGradient>
    <linearGradient
       inkscape:collect="always"
       id="linearGradient3249">
      <stop
         style="stop-color: rgb(255, 255, 255); stop-opacity: 1;"
         offset="0"
         id="stop3251" />
      <stop
         style="stop-color: rgb(255, 255, 255); stop-opacity: 0;"
         offset="1"
         id="stop3253" />
    </linearGradient>
    <linearGradient
       id="linearGradient2439">
      <stop
         style="stop-color: rgb(255, 255, 0); stop-opacity: 1;"
         offset="0"
         id="stop2441" />
      <stop
         id="stop2451"
         offset="0.5"
         style="stop-color: rgb(255, 212, 0); stop-opacity: 1;" />
      <stop
         style="stop-color: rgb(255, 169, 0); stop-opacity: 1;"
         offset="1"
         id="stop2443" />
    </linearGradient>
    <linearGradient
       id="linearGradient2429">
      <stop
         style="stop-color: rgb(255, 253, 188); stop-opacity: 1;"
         offset="0"
         id="stop2431" />
      <stop
         style="stop-color: rgb(252, 255, 0); stop-opacity: 1;"
         offset="1"
         id="stop2433" />
    </linearGradient>
    <linearGradient
       id="linearGradient2421">
      <stop
         style="stop-color: rgb(255, 255, 255); stop-opacity: 1;"
         offset="0"
         id="stop2423" />
      <stop
         style="stop-color: rgb(255, 255, 255); stop-opacity: 1;"
         offset="1"
         id="stop2425" />
    </linearGradient>
    <linearGradient
       id="linearGradient2387">
      <stop
         style="stop-color: rgb(255, 221, 85); stop-opacity: 0.25;"
         offset="0"
         id="stop2389" />
      <stop
         style="stop-color: rgb(255, 221, 85); stop-opacity: 1;"
         offset="1"
         id="stop2391" />
    </linearGradient>
    <inkscape:perspective
       sodipodi:type="inkscape:persp3d"
       inkscape:vp_x="0 : 526.18109 : 1"
       inkscape:vp_y="0 : 1000 : 0"
       inkscape:vp_z="744.09448 : 526.18109 : 1"
       inkscape:persp3d-origin="372.04724 : 350.78739 : 1"
       id="perspective10" />
    <filter
       inkscape:collect="always"
       id="filter3227">
      <feGaussianBlur
         inkscape:collect="always"
         stdDeviation="2.5714285"
         id="feGaussianBlur3229" />
    </filter>
    <radialGradient
       inkscape:collect="always"
       xlink:href="#linearGradient2429"
       id="radialGradient3614"
       gradientUnits="userSpaceOnUse"
       gradientTransform="matrix(1.26528e-7,-1.00078,1.05272,1.32511e-7,-59.9651,792.657)"
       cx="377.14288"
       cy="404.3631"
       fx="377.14288"
       fy="404.3631"
       r="216.79578" />
    <radialGradient
       inkscape:collect="always"
       xlink:href="#linearGradient2439"
       id="radialGradient3618"
       gradientUnits="userSpaceOnUse"
       gradientTransform="matrix(-2.06172e-2,1.02202,-0.999797,-2.0169e-2,-37.5723,928.952)"
       cx="-468.77777"
       cy="440.96008"
       fx="-468.77777"
       fy="440.96008"
       r="128.57143" />
    <linearGradient
       inkscape:collect="always"
       xlink:href="#linearGradient3249"
       id="linearGradient3620"
       gradientUnits="userSpaceOnUse"
       x1="369.71582"
       y1="452.33157"
       x2="389.91888"
       y2="549.4386" />
    <linearGradient
       inkscape:collect="always"
       xlink:href="#linearGradient3272"
       id="linearGradient3625"
       gradientUnits="userSpaceOnUse"
       gradientTransform="translate(-551.543,-135.36)"
       x1="410.45316"
       y1="333.13358"
       x2="404.01804"
       y2="589.71234" />
    <linearGradient
       inkscape:collect="always"
       xlink:href="#linearGradient3272"
       id="linearGradient3638"
       gradientUnits="userSpaceOnUse"
       gradientTransform="translate(-551.543,-135.36)"
       x1="410.45316"
       y1="333.13358"
       x2="404.01804"
       y2="589.71234" />
    <linearGradient
       inkscape:collect="always"
       xlink:href="#linearGradient3272"
       id="linearGradient3647"
       gradientUnits="userSpaceOnUse"
       gradientTransform="translate(-103.036,-290.924)"
       x1="410.45316"
       y1="333.13358"
       x2="404.01804"
       y2="589.71234" />
    <radialGradient
       inkscape:collect="always"
       xlink:href="#linearGradient2429"
       id="radialGradient2731"
       gradientUnits="userSpaceOnUse"
       gradientTransform="matrix(1.26528e-7,-1.00078,1.05272,1.32511e-7,-59.9651,792.657)"
       cx="377.14288"
       cy="404.3631"
       fx="377.14288"
       fy="404.3631"
       r="216.79578" />
    <linearGradient
       inkscape:collect="always"
       xlink:href="#linearGradient3272"
       id="linearGradient2733"
       gradientUnits="userSpaceOnUse"
       gradientTransform="translate(-103.036,-290.924)"
       x1="404.01804"
       y1="366.19507"
       x2="404.01804"
       y2="589.71234" />
    <radialGradient
       inkscape:collect="always"
       xlink:href="#linearGradient2439"
       id="radialGradient2735"
       gradientUnits="userSpaceOnUse"
       gradientTransform="matrix(-2.06172e-2,1.02202,-0.999797,-2.0169e-2,-37.5723,928.952)"
       cx="-468.77777"
       cy="440.96008"
       fx="-468.77777"
       fy="440.96008"
       r="128.57143" />
    <linearGradient
       inkscape:collect="always"
       xlink:href="#linearGradient3249"
       id="linearGradient2737"
       gradientUnits="userSpaceOnUse"
       x1="369.71582"
       y1="452.33157"
       x2="389.91888"
       y2="549.4386" />
    <radialGradient
       inkscape:collect="always"
       xlink:href="#linearGradient2429"
       id="radialGradient2768"
       gradientUnits="userSpaceOnUse"
       gradientTransform="matrix(1.26528e-7,-1.00078,1.05272,1.32511e-7,-59.9651,792.657)"
       cx="377.14288"
       cy="404.3631"
       fx="377.14288"
       fy="404.3631"
       r="216.79578" />
    <linearGradient
       inkscape:collect="always"
       xlink:href="#linearGradient3272"
       id="linearGradient2770"
       gradientUnits="userSpaceOnUse"
       gradientTransform="translate(-103.036,-290.924)"
       x1="404.01804"
       y1="366.19507"
       x2="404.01804"
       y2="589.71234" />
    <radialGradient
       inkscape:collect="always"
       xlink:href="#linearGradient2439"
       id="radialGradient2772"
       gradientUnits="userSpaceOnUse"
       gradientTransform="matrix(-2.06172e-2,1.02202,-0.999797,-2.0169e-2,-37.5723,928.952)"
       cx="-468.77777"
       cy="440.96008"
       fx="-468.77777"
       fy="440.96008"
       r="128.57143" />
    <linearGradient
       inkscape:collect="always"
       xlink:href="#linearGradient3249"
       id="linearGradient2774"
       gradientUnits="userSpaceOnUse"
       x1="369.71582"
       y1="452.33157"
       x2="389.91888"
       y2="549.4386" />
    <linearGradient
       inkscape:collect="always"
       xlink:href="#linearGradient3341"
       id="linearGradient2776"
       gradientUnits="userSpaceOnUse"
       gradientTransform="translate(533.361,20.2031)"
       x1="-90.913727"
       y1="535.16406"
       x2="-83.84375"
       y2="670.52454" />
    <linearGradient
       inkscape:collect="always"
       xlink:href="#linearGradient3359"
       id="linearGradient2778"
       gradientUnits="userSpaceOnUse"
       x1="-139.40105"
       y1="490.71738"
       x2="-111.84524"
       y2="632.13873" />
    <filter
       inkscape:collect="always"
       id="filter3736">
      <feGaussianBlur
         inkscape:collect="always"
         stdDeviation="10.329825"
         id="feGaussianBlur3738" />
    </filter>
    <linearGradient
       inkscape:collect="always"
       xlink:href="#linearGradient3341"
       id="linearGradient3963"
       gradientUnits="userSpaceOnUse"
       gradientTransform="translate(533.361,20.2031)"
       x1="-90.913727"
       y1="535.16406"
       x2="-83.84375"
       y2="670.52454" />
    <linearGradient
       inkscape:collect="always"
       xlink:href="#linearGradient3359"
       id="linearGradient3965"
       gradientUnits="userSpaceOnUse"
       x1="-139.40105"
       y1="490.71738"
       x2="-111.84524"
       y2="632.13873" />
    <linearGradient
       inkscape:collect="always"
       xlink:href="#linearGradient3751"
       id="linearGradient3967"
       gradientUnits="userSpaceOnUse"
       x1="123.21429"
       y1="663.07648"
       x2="141.67184"
       y2="725.93359" />
    <linearGradient
       inkscape:collect="always"
       xlink:href="#linearGradient3751"
       id="linearGradient3969"
       gradientUnits="userSpaceOnUse"
       x1="123.21429"
       y1="663.07648"
       x2="141.67184"
       y2="725.93359" />
    <linearGradient
       inkscape:collect="always"
       xlink:href="#linearGradient3751"
       id="linearGradient3971"
       gradientUnits="userSpaceOnUse"
       x1="123.21429"
       y1="663.07648"
       x2="141.67184"
       y2="725.93359" />
    <linearGradient
       inkscape:collect="always"
       xlink:href="#linearGradient3751"
       id="linearGradient3973"
       gradientUnits="userSpaceOnUse"
       x1="123.21429"
       y1="663.07648"
       x2="141.67184"
       y2="725.93359" />
    <linearGradient
       inkscape:collect="always"
       xlink:href="#linearGradient3751"
       id="linearGradient3975"
       gradientUnits="userSpaceOnUse"
       x1="123.21429"
       y1="663.07648"
       x2="141.67184"
       y2="725.93359" />
    <linearGradient
       inkscape:collect="always"
       xlink:href="#linearGradient3341"
       id="linearGradient4003"
       gradientUnits="userSpaceOnUse"
       gradientTransform="translate(533.361,20.2031)"
       x1="-90.913727"
       y1="535.16406"
       x2="-83.84375"
       y2="670.52454" />
    <linearGradient
       inkscape:collect="always"
       xlink:href="#linearGradient3359"
       id="linearGradient4005"
       gradientUnits="userSpaceOnUse"
       x1="-139.40105"
       y1="490.71738"
       x2="-111.84524"
       y2="632.13873" />
    <linearGradient
       inkscape:collect="always"
       xlink:href="#linearGradient2593"
       id="linearGradient4007"
       gradientUnits="userSpaceOnUse"
       x1="140.41121"
       y1="489.05951"
       x2="151.97734"
       y2="588.27673" />
    <linearGradient
       inkscape:collect="always"
       xlink:href="#linearGradient2624"
       id="linearGradient4009"
       gradientUnits="userSpaceOnUse"
       gradientTransform="translate(-4.04061,-10.1015)"
       x1="165.27296"
       y1="568.71503"
       x2="222.23357"
       y2="635.16919" />
    <linearGradient
       inkscape:collect="always"
       xlink:href="#linearGradient2593"
       id="linearGradient4011"
       gradientUnits="userSpaceOnUse"
       x1="140.41121"
       y1="489.05951"
       x2="151.97734"
       y2="588.27673" />
    <linearGradient
       inkscape:collect="always"
       xlink:href="#linearGradient2624"
       id="linearGradient4013"
       gradientUnits="userSpaceOnUse"
       gradientTransform="translate(-4.04061,-10.1015)"
       x1="165.27296"
       y1="568.71503"
       x2="222.23357"
       y2="635.16919" />
    <linearGradient
       inkscape:collect="always"
       xlink:href="#linearGradient2593"
       id="linearGradient4015"
       gradientUnits="userSpaceOnUse"
       x1="140.41121"
       y1="489.05951"
       x2="151.97734"
       y2="588.27673" />
    <linearGradient
       inkscape:collect="always"
       xlink:href="#linearGradient2624"
       id="linearGradient4017"
       gradientUnits="userSpaceOnUse"
       gradientTransform="translate(-4.04061,-10.1015)"
       x1="165.27296"
       y1="568.71503"
       x2="222.23357"
       y2="635.16919" />
    <linearGradient
       inkscape:collect="always"
       xlink:href="#linearGradient2593"
       id="linearGradient4019"
       gradientUnits="userSpaceOnUse"
       x1="140.41121"
       y1="489.05951"
       x2="151.97734"
       y2="588.27673" />
    <linearGradient
       inkscape:collect="always"
       xlink:href="#linearGradient2624"
       id="linearGradient4021"
       gradientUnits="userSpaceOnUse"
       gradientTransform="translate(-4.04061,-10.1015)"
       x1="165.27296"
       y1="568.71503"
       x2="222.23357"
       y2="635.16919" />
    <linearGradient
       inkscape:collect="always"
       xlink:href="#linearGradient2593"
       id="linearGradient4023"
       gradientUnits="userSpaceOnUse"
       x1="140.41121"
       y1="489.05951"
       x2="151.97734"
       y2="588.27673" />
    <linearGradient
       inkscape:collect="always"
       xlink:href="#linearGradient2624"
       id="linearGradient4025"
       gradientUnits="userSpaceOnUse"
       gradientTransform="translate(-4.04061,-10.1015)"
       x1="165.27296"
       y1="568.71503"
       x2="222.23357"
       y2="635.16919" />
    <linearGradient
       inkscape:collect="always"
       xlink:href="#linearGradient3341"
       id="linearGradient4155"
       gradientUnits="userSpaceOnUse"
       gradientTransform="translate(533.361,20.2031)"
       x1="-90.913727"
       y1="535.16406"
       x2="-83.84375"
       y2="670.52454" />
    <linearGradient
       inkscape:collect="always"
       xlink:href="#linearGradient3359"
       id="linearGradient4157"
       gradientUnits="userSpaceOnUse"
       x1="-139.40105"
       y1="490.71738"
       x2="-111.84524"
       y2="632.13873" />
    <linearGradient
       inkscape:collect="always"
       xlink:href="#linearGradient3341"
       id="linearGradient4159"
       gradientUnits="userSpaceOnUse"
       gradientTransform="translate(533.361,20.2031)"
       x1="-90.913727"
       y1="535.16406"
       x2="-83.84375"
       y2="670.52454" />
    <linearGradient
       inkscape:collect="always"
       xlink:href="#linearGradient3359"
       id="linearGradient4161"
       gradientUnits="userSpaceOnUse"
       x1="-139.40105"
       y1="490.71738"
       x2="-111.84524"
       y2="632.13873" />
    <linearGradient
       inkscape:collect="always"
       xlink:href="#linearGradient4047"
       id="linearGradient4163"
       gradientUnits="userSpaceOnUse"
       gradientTransform="matrix(0.464478,0,0,0.464478,531.731,385.505)"
       x1="-90.913727"
       y1="535.16406"
       x2="-83.84375"
       y2="670.52454" />
    <linearGradient
       inkscape:collect="always"
       xlink:href="#linearGradient3359"
       id="linearGradient4165"
       gradientUnits="userSpaceOnUse"
       x1="-139.40105"
       y1="490.71738"
       x2="-111.84524"
       y2="632.13873" />
    <linearGradient
       inkscape:collect="always"
       xlink:href="#linearGradient4047"
       id="linearGradient4171"
       gradientUnits="userSpaceOnUse"
       gradientTransform="matrix(0.464478,0,0,0.464478,533.802,403.137)"
       x1="-90.913727"
       y1="535.16406"
       x2="-83.84375"
       y2="670.52454" />
    <filter
       inkscape:collect="always"
       id="filter4179">
      <feGaussianBlur
         inkscape:collect="always"
         stdDeviation="0.73637795"
         id="feGaussianBlur4181" />
    </filter>
    <linearGradient
       inkscape:collect="always"
       xlink:href="#linearGradient3359"
       id="linearGradient4183"
       gradientUnits="userSpaceOnUse"
       x1="-139.40105"
       y1="490.71738"
       x2="-111.84524"
       y2="632.13873" />
  </defs>
  <sodipodi:namedview
     id="base"
     pagecolor="#ffffff"
     bordercolor="#666666"
     borderopacity="1.0"
     gridtolerance="10000"
     guidetolerance="10"
     objecttolerance="10"
     inkscape:pageopacity="0.0"
     inkscape:pageshadow="2"
     inkscape:zoom="0.73699172"
     inkscape:cx="271.58124"
     inkscape:cy="365.67575"
     inkscape:document-units="px"
     inkscape:current-layer="layer1"
     showgrid="false"
     inkscape:window-width="1280"
     inkscape:window-height="744"
     inkscape:window-x="0"
     inkscape:window-y="22"
     showguides="true"
     inkscape:guide-bbox="true">
    <sodipodi:guide
       orientation="1,0"
       position="-989.94949,315.16759"
       id="guide2920" />
  </sodipodi:namedview>
  <metadata
     id="metadata7">
    <rdf:RDF>
      <cc:Work
         rdf:about="">
        <dc:format>image/svg+xml</dc:format>
        <dc:type
           rdf:resource="http://purl.org/dc/dcmitype/StillImage" />
      </cc:Work>
    </rdf:RDF>
  </metadata>
  <g
     inkscape:label="Layer 1"
     inkscape:groupmode="layer"
     id="layer1"
     transform="translate(-406.1863,-420.14579)">
    <g
       id="g3977"
       transform="matrix(0.834254,0,0,0.834254,120.997,141.32)">
      <g
         id="g2780"
         transform="matrix(0.556758,0,0,0.556758,197.866,41.8803)">
        <path
           id="path2782"
           d="M 417.20429,525.07805 C 384.72568,525.07805 355.85117,540.56715 337.57929,564.57805 C 333.58955,563.83238 329.47179,563.45305 325.26679,563.45305 C 288.46491,563.45305 258.61053,593.30745 258.61054,630.1093 C 258.61054,666.91118 288.46491,696.79679 325.26679,696.7968 C 332.01831,696.7968 338.52985,695.79068 344.67304,693.9218 C 362.89773,713.10393 388.67653,725.07803 417.20429,725.07805 C 433.16638,725.07805 448.25057,721.33192 461.64179,714.6718 C 475.03301,721.33192 490.1172,725.07804 506.07929,725.07805 C 538.95206,725.07805 568.12852,709.18191 586.36054,684.6718 C 616.25516,684.4192 640.42304,660.06319 640.42304,630.1093 C 640.42304,602.50043 619.89251,579.68271 593.26679,576.07805 C 576.11534,545.63808 543.48595,525.07805 506.07929,525.07805 C 490.11473,525.07805 475.03455,528.82225 461.64179,535.4843 C 448.24903,528.82225 433.16885,525.07805 417.20429,525.07805 z"
           style="fill:url(#linearGradient4003);fill-opacity:1;fill-rule:evenodd;stroke:none;stroke-width:1px;stroke-linecap:butt;stroke-linejoin:miter;marker:none;stroke-miterlimit:4;stroke-dasharray:none;stroke-dashoffset:0;stroke-opacity:1;visibility:visible;display:inline;overflow:visible" />
        <path
           transform="translate(531.34,16.1624)"
           d="M -116.15625,516.8125 C -144.64513,516.8125 -170.35351,530.66326 -186.28125,551.59375 C -189.05033,555.23789 -193.46943,556.96389 -197.96875,556.125 C -201.23254,555.515 -204.61459,555.1875 -208.09375,555.1875 C -237.17211,555.1875 -262.8125,580.82795 -262.8125,609.90625 C -262.8125,613.73514 -262.52423,615.04073 -262.625,613.4375 C -261.75316,627.16565 -251.74518,638.58501 -238.25,641.25 C -206.17911,647.59387 -162.70249,644.72967 -111.03125,631.90625 C -69.335603,621.5585 -24.461047,605.73349 20.09375,587.90625 C 30.078443,583.90252 37.192608,574.90607 38.78681,564.26735 C 40.381012,553.62862 36.216326,542.94205 27.84375,536.1875 C 12.872939,524.13307 -6.5169017,516.8125 -27.28125,516.8125 C -41.232706,516.8125 -54.699523,520.1454 -66.40625,525.96875 C -69.777834,527.64583 -73.659666,527.64583 -77.03125,525.96875 C -88.73797,520.1454 -102.20479,516.8125 -116.15625,516.8125 z"
           id="path2784"
           style="fill:url(#linearGradient4005);fill-opacity:1;fill-rule:evenodd;stroke:none;stroke-width:1px;stroke-linecap:butt;stroke-linejoin:miter;marker:none;stroke-miterlimit:4;stroke-dashoffset:0;stroke-opacity:1;visibility:visible;display:inline;overflow:visible"
           inkscape:original="M -116.15625 547.125 C -135.20637 547.125 -151.56917 556.02512 -162.15625 569.9375 C -171.81969 582.65469 -187.8297 588.83378 -203.53125 585.90625 C -204.90493 585.64951 -206.42884 585.5 -208.09375 585.5 C -222.0535 585.5 -232.5 595.94654 -232.5 609.90625 C -232.5 610.46775 -232.40919 610.98732 -232.375 611.53125 C -208.17199 616.31879 -166.7837 614.5215 -118.34375 602.5 C -78.749823 592.67384 -34.914664 577.28984 8.84375 559.78125 C -0.97817672 551.87268 -13.453511 547.125 -27.28125 547.125 C -36.641906 547.125 -45.183256 549.25205 -52.90625 553.09375 C -64.755443 558.98774 -78.682057 558.98774 -90.53125 553.09375 C -98.254247 549.25205 -106.79559 547.125 -116.15625 547.125 z "
           inkscape:radius="30.304577"
           sodipodi:type="inkscape:offset" />
      </g>
      <g
         id="g2786"
         transform="matrix(0.556758,0,0,0.556758,255.232,197.669)">
        <g
           id="g2788"
           transform="matrix(0.447151,0,0,0.447151,149.8,238.343)">
          <path
             sodipodi:nodetypes="czszc"
             id="path2790"
             d="M 241.88501,431.11745 C 188.29047,508.65296 133.99907,533.1251 122.81811,552.49108 C 111.62537,571.87749 117.61348,603.14369 139.82686,615.96858 C 162.04023,628.79347 193.6082,615.75407 203.30435,598.95983 C 212.92665,582.29353 204.7976,518.18335 241.88501,431.11745 z"
             style="opacity:1;fill:#008080;fill-opacity:1;fill-rule:evenodd;stroke:none;stroke-width:32;stroke-linecap:butt;stroke-linejoin:miter;marker:none;stroke-miterlimit:4;stroke-dasharray:none;stroke-dashoffset:0;stroke-opacity:1;visibility:visible;display:inline;overflow:visible" />
          <path
             d="M 201.46875,489.0625 C 200.27012,489.09911 199.13041,489.59075 198.28125,490.4375 C 184.61616,504.14253 170.10189,516.98106 154.90625,528.875 C 154.85329,528.91556 154.80119,528.95723 154.75,529 C 144.33724,537.85116 133.7552,544.62593 126.84375,554.65625 C 126.74203,554.7968 126.64813,554.94286 126.5625,555.09375 C 122.18848,563.19184 120.72797,573.01253 122.71875,581.84375 C 122.7955,582.18891 122.91081,582.52435 123.0625,582.84375 C 123.91887,584.64234 125.15801,585.94546 126.65625,586.90625 C 128.15449,587.86704 130.11092,588.8729 132.90625,587.84375 C 133.08761,587.78169 133.26502,587.70864 133.4375,587.625 C 133.45749,587.61481 133.47905,587.60403 133.5,587.59375 L 133.5,587.5625 C 144.71316,583.41704 153.01641,573.55129 161.71875,563.5625 C 161.75069,563.52135 161.78194,563.47968 161.8125,563.4375 C 178.71906,542.52419 192.95569,519.73029 205.78125,496.03125 C 206.59029,494.54303 206.53947,492.73533 205.64809,491.29492 C 204.75672,489.8545 203.1616,489.00246 201.46875,489.0625 z"
             id="path2792"
             style="fill:url(#linearGradient4007);fill-opacity:1;fill-rule:evenodd;stroke:none;stroke-width:32;stroke-linecap:butt;stroke-linejoin:miter;marker:none;stroke-miterlimit:4;stroke-dashoffset:0;stroke-opacity:1;visibility:visible;display:inline;overflow:visible"
             inkscape:original="M 201.625 493.78125 C 187.81962 507.62698 173.15623 520.58389 157.8125 532.59375 C 147.14188 541.6641 136.86836 548.41906 130.71875 557.34375 C 126.91856 564.37944 125.61028 573.26134 127.3125 580.8125 C 128.16593 582.60492 130.14421 583.82487 131.28125 583.40625 C 131.32276 583.3851 131.36443 583.36427 131.40625 583.34375 C 141.14259 579.93626 149.31927 570.61209 158.15625 560.46875 C 174.82182 539.85354 188.89144 517.31029 201.625 493.78125 z "
             inkscape:radius="4.717742"
             sodipodi:type="inkscape:offset" />
          <path
             id="path2794"
             d="M 196.27189,558.64847 C 190.51616,560.07772 189.77832,567.7706 186.01409,571.61574 C 179.54601,582.19736 170.92563,591.30594 161.95939,599.49222 C 159.09823,604.20587 165.30833,609.14714 169.70939,606.33597 C 183.32401,602.39921 198.47513,593.1134 199.93875,577.63124 C 200.05562,572.08006 203.47358,565.92265 200.89689,560.67972 C 199.89123,559.22205 198.03442,558.43348 196.27189,558.64847 z"
             style="fill:url(#linearGradient4009);fill-opacity:1;fill-rule:evenodd;stroke:none;stroke-width:32;stroke-linecap:butt;stroke-linejoin:miter;marker:none;stroke-miterlimit:4;stroke-dashoffset:0;stroke-opacity:1;visibility:visible;display:inline;overflow:visible" />
        </g>
        <g
           id="g2796"
           transform="matrix(0.447151,0,0,0.447151,214.449,274.708)">
          <path
             sodipodi:nodetypes="czszc"
             id="path2798"
             d="M 241.88501,431.11745 C 188.29047,508.65296 133.99907,533.1251 122.81811,552.49108 C 111.62537,571.87749 117.61348,603.14369 139.82686,615.96858 C 162.04023,628.79347 193.6082,615.75407 203.30435,598.95983 C 212.92665,582.29353 204.7976,518.18335 241.88501,431.11745 z"
             style="opacity:1;fill:#008080;fill-opacity:1;fill-rule:evenodd;stroke:none;stroke-width:32;stroke-linecap:butt;stroke-linejoin:miter;marker:none;stroke-miterlimit:4;stroke-dasharray:none;stroke-dashoffset:0;stroke-opacity:1;visibility:visible;display:inline;overflow:visible" />
          <path
             d="M 201.46875,489.0625 C 200.27012,489.09911 199.13041,489.59075 198.28125,490.4375 C 184.61616,504.14253 170.10189,516.98106 154.90625,528.875 C 154.85329,528.91556 154.80119,528.95723 154.75,529 C 144.33724,537.85116 133.7552,544.62593 126.84375,554.65625 C 126.74203,554.7968 126.64813,554.94286 126.5625,555.09375 C 122.18848,563.19184 120.72797,573.01253 122.71875,581.84375 C 122.7955,582.18891 122.91081,582.52435 123.0625,582.84375 C 123.91887,584.64234 125.15801,585.94546 126.65625,586.90625 C 128.15449,587.86704 130.11092,588.8729 132.90625,587.84375 C 133.08761,587.78169 133.26502,587.70864 133.4375,587.625 C 133.45749,587.61481 133.47905,587.60403 133.5,587.59375 L 133.5,587.5625 C 144.71316,583.41704 153.01641,573.55129 161.71875,563.5625 C 161.75069,563.52135 161.78194,563.47968 161.8125,563.4375 C 178.71906,542.52419 192.95569,519.73029 205.78125,496.03125 C 206.59029,494.54303 206.53947,492.73533 205.64809,491.29492 C 204.75672,489.8545 203.1616,489.00246 201.46875,489.0625 z"
             id="path2800"
             style="fill:url(#linearGradient4011);fill-opacity:1;fill-rule:evenodd;stroke:none;stroke-width:32;stroke-linecap:butt;stroke-linejoin:miter;marker:none;stroke-miterlimit:4;stroke-dashoffset:0;stroke-opacity:1;visibility:visible;display:inline;overflow:visible"
             inkscape:original="M 201.625 493.78125 C 187.81962 507.62698 173.15623 520.58389 157.8125 532.59375 C 147.14188 541.6641 136.86836 548.41906 130.71875 557.34375 C 126.91856 564.37944 125.61028 573.26134 127.3125 580.8125 C 128.16593 582.60492 130.14421 583.82487 131.28125 583.40625 C 131.32276 583.3851 131.36443 583.36427 131.40625 583.34375 C 141.14259 579.93626 149.31927 570.61209 158.15625 560.46875 C 174.82182 539.85354 188.89144 517.31029 201.625 493.78125 z "
             inkscape:radius="4.717742"
             sodipodi:type="inkscape:offset" />
          <path
             id="path2802"
             d="M 196.27189,558.64847 C 190.51616,560.07772 189.77832,567.7706 186.01409,571.61574 C 179.54601,582.19736 170.92563,591.30594 161.95939,599.49222 C 159.09823,604.20587 165.30833,609.14714 169.70939,606.33597 C 183.32401,602.39921 198.47513,593.1134 199.93875,577.63124 C 200.05562,572.08006 203.47358,565.92265 200.89689,560.67972 C 199.89123,559.22205 198.03442,558.43348 196.27189,558.64847 z"
             style="fill:url(#linearGradient4013);fill-opacity:1;fill-rule:evenodd;stroke:none;stroke-width:32;stroke-linecap:butt;stroke-linejoin:miter;marker:none;stroke-miterlimit:4;stroke-dashoffset:0;stroke-opacity:1;visibility:visible;display:inline;overflow:visible" />
        </g>
        <g
           id="g2804"
           transform="matrix(0.447151,0,0,0.447151,300.312,290.871)">
          <path
             sodipodi:nodetypes="czszc"
             id="path2806"
             d="M 241.88501,431.11745 C 188.29047,508.65296 133.99907,533.1251 122.81811,552.49108 C 111.62537,571.87749 117.61348,603.14369 139.82686,615.96858 C 162.04023,628.79347 193.6082,615.75407 203.30435,598.95983 C 212.92665,582.29353 204.7976,518.18335 241.88501,431.11745 z"
             style="opacity:1;fill:#008080;fill-opacity:1;fill-rule:evenodd;stroke:none;stroke-width:32;stroke-linecap:butt;stroke-linejoin:miter;marker:none;stroke-miterlimit:4;stroke-dasharray:none;stroke-dashoffset:0;stroke-opacity:1;visibility:visible;display:inline;overflow:visible" />
          <path
             d="M 201.46875,489.0625 C 200.27012,489.09911 199.13041,489.59075 198.28125,490.4375 C 184.61616,504.14253 170.10189,516.98106 154.90625,528.875 C 154.85329,528.91556 154.80119,528.95723 154.75,529 C 144.33724,537.85116 133.7552,544.62593 126.84375,554.65625 C 126.74203,554.7968 126.64813,554.94286 126.5625,555.09375 C 122.18848,563.19184 120.72797,573.01253 122.71875,581.84375 C 122.7955,582.18891 122.91081,582.52435 123.0625,582.84375 C 123.91887,584.64234 125.15801,585.94546 126.65625,586.90625 C 128.15449,587.86704 130.11092,588.8729 132.90625,587.84375 C 133.08761,587.78169 133.26502,587.70864 133.4375,587.625 C 133.45749,587.61481 133.47905,587.60403 133.5,587.59375 L 133.5,587.5625 C 144.71316,583.41704 153.01641,573.55129 161.71875,563.5625 C 161.75069,563.52135 161.78194,563.47968 161.8125,563.4375 C 178.71906,542.52419 192.95569,519.73029 205.78125,496.03125 C 206.59029,494.54303 206.53947,492.73533 205.64809,491.29492 C 204.75672,489.8545 203.1616,489.00246 201.46875,489.0625 z"
             id="path2808"
             style="fill:url(#linearGradient4015);fill-opacity:1;fill-rule:evenodd;stroke:none;stroke-width:32;stroke-linecap:butt;stroke-linejoin:miter;marker:none;stroke-miterlimit:4;stroke-dashoffset:0;stroke-opacity:1;visibility:visible;display:inline;overflow:visible"
             inkscape:original="M 201.625 493.78125 C 187.81962 507.62698 173.15623 520.58389 157.8125 532.59375 C 147.14188 541.6641 136.86836 548.41906 130.71875 557.34375 C 126.91856 564.37944 125.61028 573.26134 127.3125 580.8125 C 128.16593 582.60492 130.14421 583.82487 131.28125 583.40625 C 131.32276 583.3851 131.36443 583.36427 131.40625 583.34375 C 141.14259 579.93626 149.31927 570.61209 158.15625 560.46875 C 174.82182 539.85354 188.89144 517.31029 201.625 493.78125 z "
             inkscape:radius="4.717742"
             sodipodi:type="inkscape:offset" />
          <path
             id="path2810"
             d="M 196.27189,558.64847 C 190.51616,560.07772 189.77832,567.7706 186.01409,571.61574 C 179.54601,582.19736 170.92563,591.30594 161.95939,599.49222 C 159.09823,604.20587 165.30833,609.14714 169.70939,606.33597 C 183.32401,602.39921 198.47513,593.1134 199.93875,577.63124 C 200.05562,572.08006 203.47358,565.92265 200.89689,560.67972 C 199.89123,559.22205 198.03442,558.43348 196.27189,558.64847 z"
             style="fill:url(#linearGradient4017);fill-opacity:1;fill-rule:evenodd;stroke:none;stroke-width:32;stroke-linecap:butt;stroke-linejoin:miter;marker:none;stroke-miterlimit:4;stroke-dashoffset:0;stroke-opacity:1;visibility:visible;display:inline;overflow:visible" />
        </g>
        <g
           id="g2812"
           transform="matrix(0.245148,0,0,0.245148,190.12,418.364)">
          <path
             sodipodi:nodetypes="czszc"
             id="path2814"
             d="M 241.88501,431.11745 C 188.29047,508.65296 133.99907,533.1251 122.81811,552.49108 C 111.62537,571.87749 117.61348,603.14369 139.82686,615.96858 C 162.04023,628.79347 193.6082,615.75407 203.30435,598.95983 C 212.92665,582.29353 204.7976,518.18335 241.88501,431.11745 z"
             style="opacity:1;fill:#008080;fill-opacity:1;fill-rule:evenodd;stroke:none;stroke-width:32;stroke-linecap:butt;stroke-linejoin:miter;marker:none;stroke-miterlimit:4;stroke-dasharray:none;stroke-dashoffset:0;stroke-opacity:1;visibility:visible;display:inline;overflow:visible" />
          <path
             d="M 201.46875,489.0625 C 200.27012,489.09911 199.13041,489.59075 198.28125,490.4375 C 184.61616,504.14253 170.10189,516.98106 154.90625,528.875 C 154.85329,528.91556 154.80119,528.95723 154.75,529 C 144.33724,537.85116 133.7552,544.62593 126.84375,554.65625 C 126.74203,554.7968 126.64813,554.94286 126.5625,555.09375 C 122.18848,563.19184 120.72797,573.01253 122.71875,581.84375 C 122.7955,582.18891 122.91081,582.52435 123.0625,582.84375 C 123.91887,584.64234 125.15801,585.94546 126.65625,586.90625 C 128.15449,587.86704 130.11092,588.8729 132.90625,587.84375 C 133.08761,587.78169 133.26502,587.70864 133.4375,587.625 C 133.45749,587.61481 133.47905,587.60403 133.5,587.59375 L 133.5,587.5625 C 144.71316,583.41704 153.01641,573.55129 161.71875,563.5625 C 161.75069,563.52135 161.78194,563.47968 161.8125,563.4375 C 178.71906,542.52419 192.95569,519.73029 205.78125,496.03125 C 206.59029,494.54303 206.53947,492.73533 205.64809,491.29492 C 204.75672,489.8545 203.1616,489.00246 201.46875,489.0625 z"
             id="path2816"
             style="fill:url(#linearGradient4019);fill-opacity:1;fill-rule:evenodd;stroke:none;stroke-width:32;stroke-linecap:butt;stroke-linejoin:miter;marker:none;stroke-miterlimit:4;stroke-dashoffset:0;stroke-opacity:1;visibility:visible;display:inline;overflow:visible"
             inkscape:original="M 201.625 493.78125 C 187.81962 507.62698 173.15623 520.58389 157.8125 532.59375 C 147.14188 541.6641 136.86836 548.41906 130.71875 557.34375 C 126.91856 564.37944 125.61028 573.26134 127.3125 580.8125 C 128.16593 582.60492 130.14421 583.82487 131.28125 583.40625 C 131.32276 583.3851 131.36443 583.36427 131.40625 583.34375 C 141.14259 579.93626 149.31927 570.61209 158.15625 560.46875 C 174.82182 539.85354 188.89144 517.31029 201.625 493.78125 z "
             inkscape:radius="4.717742"
             sodipodi:type="inkscape:offset" />
          <path
             id="path2818"
             d="M 196.27189,558.64847 C 190.51616,560.07772 189.77832,567.7706 186.01409,571.61574 C 179.54601,582.19736 170.92563,591.30594 161.95939,599.49222 C 159.09823,604.20587 165.30833,609.14714 169.70939,606.33597 C 183.32401,602.39921 198.47513,593.1134 199.93875,577.63124 C 200.05562,572.08006 203.47358,565.92265 200.89689,560.67972 C 199.89123,559.22205 198.03442,558.43348 196.27189,558.64847 z"
             style="fill:url(#linearGradient4021);fill-opacity:1;fill-rule:evenodd;stroke:none;stroke-width:32;stroke-linecap:butt;stroke-linejoin:miter;marker:none;stroke-miterlimit:4;stroke-dashoffset:0;stroke-opacity:1;visibility:visible;display:inline;overflow:visible" />
        </g>
        <g
           id="g2820"
           transform="matrix(0.349841,0,0,0.349841,297.586,292.571)">
          <path
             sodipodi:nodetypes="czszc"
             id="path2822"
             d="M 241.88501,431.11745 C 188.29047,508.65296 133.99907,533.1251 122.81811,552.49108 C 111.62537,571.87749 117.61348,603.14369 139.82686,615.96858 C 162.04023,628.79347 193.6082,615.75407 203.30435,598.95983 C 212.92665,582.29353 204.7976,518.18335 241.88501,431.11745 z"
             style="opacity:1;fill:#008080;fill-opacity:1;fill-rule:evenodd;stroke:none;stroke-width:32;stroke-linecap:butt;stroke-linejoin:miter;marker:none;stroke-miterlimit:4;stroke-dasharray:none;stroke-dashoffset:0;stroke-opacity:1;visibility:visible;display:inline;overflow:visible" />
          <path
             d="M 201.46875,489.0625 C 200.27012,489.09911 199.13041,489.59075 198.28125,490.4375 C 184.61616,504.14253 170.10189,516.98106 154.90625,528.875 C 154.85329,528.91556 154.80119,528.95723 154.75,529 C 144.33724,537.85116 133.7552,544.62593 126.84375,554.65625 C 126.74203,554.7968 126.64813,554.94286 126.5625,555.09375 C 122.18848,563.19184 120.72797,573.01253 122.71875,581.84375 C 122.7955,582.18891 122.91081,582.52435 123.0625,582.84375 C 123.91887,584.64234 125.15801,585.94546 126.65625,586.90625 C 128.15449,587.86704 130.11092,588.8729 132.90625,587.84375 C 133.08761,587.78169 133.26502,587.70864 133.4375,587.625 C 133.45749,587.61481 133.47905,587.60403 133.5,587.59375 L 133.5,587.5625 C 144.71316,583.41704 153.01641,573.55129 161.71875,563.5625 C 161.75069,563.52135 161.78194,563.47968 161.8125,563.4375 C 178.71906,542.52419 192.95569,519.73029 205.78125,496.03125 C 206.59029,494.54303 206.53947,492.73533 205.64809,491.29492 C 204.75672,489.8545 203.1616,489.00246 201.46875,489.0625 z"
             id="path2824"
             style="fill:url(#linearGradient4023);fill-opacity:1;fill-rule:evenodd;stroke:none;stroke-width:32;stroke-linecap:butt;stroke-linejoin:miter;marker:none;stroke-miterlimit:4;stroke-dashoffset:0;stroke-opacity:1;visibility:visible;display:inline;overflow:visible"
             inkscape:original="M 201.625 493.78125 C 187.81962 507.62698 173.15623 520.58389 157.8125 532.59375 C 147.14188 541.6641 136.86836 548.41906 130.71875 557.34375 C 126.91856 564.37944 125.61028 573.26134 127.3125 580.8125 C 128.16593 582.60492 130.14421 583.82487 131.28125 583.40625 C 131.32276 583.3851 131.36443 583.36427 131.40625 583.34375 C 141.14259 579.93626 149.31927 570.61209 158.15625 560.46875 C 174.82182 539.85354 188.89144 517.31029 201.625 493.78125 z "
             inkscape:radius="4.717742"
             sodipodi:type="inkscape:offset" />
          <path
             id="path2826"
             d="M 196.27189,558.64847 C 190.51616,560.07772 189.77832,567.7706 186.01409,571.61574 C 179.54601,582.19736 170.92563,591.30594 161.95939,599.49222 C 159.09823,604.20587 165.30833,609.14714 169.70939,606.33597 C 183.32401,602.39921 198.47513,593.1134 199.93875,577.63124 C 200.05562,572.08006 203.47358,565.92265 200.89689,560.67972 C 199.89123,559.22205 198.03442,558.43348 196.27189,558.64847 z"
             style="fill:url(#linearGradient4025);fill-opacity:1;fill-rule:evenodd;stroke:none;stroke-width:32;stroke-linecap:butt;stroke-linejoin:miter;marker:none;stroke-miterlimit:4;stroke-dashoffset:0;stroke-opacity:1;visibility:visible;display:inline;overflow:visible" />
        </g>
      </g>
    </g>
  </g>
</svg>
